<svg width="136" height="46" viewBox="0 0 136 46" fill="none" xmlns="http://www.w3.org/2000/svg">
<path d="M67.3809 20.0251C67.088 19.7322 67.088 19.2574 67.3809 18.9645C67.6738 18.6716 68.1487 18.6716 68.4415 18.9645L70.9165 21.4394L73.3914 18.9645C73.6842 18.6716 74.1591 18.6716 74.452 18.9645C74.7449 19.2573 74.7449 19.7322 74.452 20.0251L71.9771 22.5L74.452 24.9749C74.7449 25.2678 74.7449 25.7427 74.452 26.0355C74.1591 26.3284 73.6842 26.3284 73.3914 26.0355L70.9165 23.5607L68.4415 26.0355C68.1487 26.3284 67.6738 26.3284 67.381 26.0355C67.088 25.7426 67.088 25.2678 67.381 24.9749L69.8558 22.5001L67.3809 20.0251Z" fill="white"/>
<path fill-rule="evenodd" clip-rule="evenodd" d="M64.2878 14.8787L56.6665 22.5L64.2878 30.1213C64.8505 30.684 65.6135 31 66.4092 31H76.6665C78.3234 31 79.6665 29.6569 79.6665 28V17C79.6665 15.3431 78.3234 14 76.6665 14H66.4092C65.6135 14 64.8505 14.3161 64.2878 14.8787ZM76.6665 29.7H66.4092C65.9583 29.7 65.5259 29.5209 65.207 29.2021L58.505 22.5L65.207 15.7979C65.5259 15.4791 65.9583 15.3 66.4092 15.3H76.6665C77.6053 15.3 78.3665 16.0611 78.3665 17V28C78.3665 28.9389 77.6053 29.7 76.6665 29.7Z" fill="white"/>
</svg>
