<svg width="29" height="13" viewBox="0 0 29 13" fill="none" xmlns="http://www.w3.org/2000/svg">
<path opacity="0.35" d="M1.32686 4C1.32686 2.08221 2.88153 0.527543 4.79932 0.527543H21.7993C23.7171 0.527543 25.2718 2.08222 25.2718 4V9C25.2718 10.9178 23.7171 12.4725 21.7993 12.4725H4.79932C2.88153 12.4725 1.32686 10.9178 1.32686 9V4Z" stroke="white" stroke-width="1.05509"/>
<path opacity="0.4" d="M26.7993 5V9.22034C27.6484 8.86291 28.2005 8.0314 28.2005 7.11017C28.2005 6.18894 27.6484 5.35744 26.7993 5Z" fill="white"/>
<path d="M2.79932 4C2.79932 2.89543 3.69475 2 4.79932 2H21.7993C22.9039 2 23.7993 2.89543 23.7993 4V9C23.7993 10.1046 22.9039 11 21.7993 11H4.79932C3.69475 11 2.79932 10.1046 2.79932 9V4Z" fill="white"/>
</svg>
