<svg width="29" height="13" viewBox="0 0 29 13" fill="none" xmlns="http://www.w3.org/2000/svg">
<path opacity="0.35" d="M1.29932 4C1.29932 2.067 2.86632 0.5 4.79932 0.5H21.7993C23.7323 0.5 25.2993 2.067 25.2993 4V9C25.2993 10.933 23.7323 12.5 21.7993 12.5H4.79932C2.86632 12.5 1.29932 10.933 1.29932 9V4Z" stroke="black"/>
<path opacity="0.4" d="M26.7993 5V9.22034C27.6484 8.86291 28.2005 8.0314 28.2005 7.11017C28.2005 6.18894 27.6484 5.35744 26.7993 5Z" fill="black"/>
<path d="M2.79932 4C2.79932 2.89543 3.69475 2 4.79932 2H21.7993C22.9039 2 23.7993 2.89543 23.7993 4V9C23.7993 10.1046 22.9039 11 21.7993 11H4.79932C3.69475 11 2.79932 10.1046 2.79932 9V4Z" fill="black"/>
</svg>
