<svg width="25" height="24" viewBox="0 0 25 24" fill="none" xmlns="http://www.w3.org/2000/svg">
<path d="M12.248 12.5C15.143 12.5 17.498 10.145 17.498 7.25C17.498 4.355 15.143 2 12.248 2C9.35299 2 6.99799 4.355 6.99799 7.25C6.99799 10.145 9.35299 12.5 12.248 12.5ZM12.248 11C-0.262523 11 24.2881 11 12.248 11V11ZM19.998 17.717V18.728C19.998 19.663 19.657 20.559 19.037 21.25C17 21.5 6.5 21.5 5.461 21.251C4.841 20.559 4.5 19.663 4.5 18.729V17.718C4.5 15.516 5.97097 13.608 8.07697 13.078C8.69997 12.92 9.37697 13.01 9.93097 13.326C11.361 14.122 13.133 14.125 14.575 13.323C15.122 13.011 15.799 12.922 16.424 13.079C18.527 13.606 19.998 15.514 19.998 17.717Z" fill="url(#paint0_linear_9_1488)"/>
<defs>
<linearGradient id="paint0_linear_9_1488" x1="4.5" y1="11.7188" x2="19.998" y2="11.7188" gradientUnits="userSpaceOnUse">
<stop stop-color="#11998E"/>
<stop offset="1" stop-color="#38EF7D"/>
</linearGradient>
</defs>
</svg>
