<svg width="25" height="24" viewBox="0 0 25 24" fill="none" xmlns="http://www.w3.org/2000/svg">
<path d="M12.499 12.7498C15.394 12.7498 17.749 10.3948 17.749 7.49976C17.749 4.60476 15.394 2.24976 12.499 2.24976C9.60396 2.24976 7.24896 4.60476 7.24896 7.49976C7.24896 10.3948 9.60396 12.7498 12.499 12.7498ZM12.499 3.74976C14.567 3.74976 16.249 5.43176 16.249 7.49976C16.249 9.56776 14.567 11.2498 12.499 11.2498C10.431 11.2498 8.74896 9.56776 8.74896 7.49976C8.74896 5.43176 10.431 3.74976 12.499 3.74976ZM20.249 17.9668V18.9778C20.249 19.9128 19.908 20.8088 19.288 21.4998C19.14 21.6658 18.9349 21.7498 18.7289 21.7498C18.5509 21.7498 18.3719 21.6867 18.2289 21.5587C17.9199 21.2827 17.895 20.8088 18.171 20.4998C18.544 20.0828 18.7499 19.5428 18.7499 18.9788V17.9678C18.7499 16.4538 17.7459 15.1437 16.3069 14.7827C16.0539 14.7187 15.782 14.7538 15.561 14.8788C13.66 15.9368 11.3339 15.9327 9.44495 14.8817C9.21895 14.7527 8.94697 14.7157 8.69397 14.7817C7.25497 15.1437 6.24994 16.4538 6.24994 17.9678V18.9788C6.24994 19.5438 6.45598 20.0838 6.82898 20.4998C7.10498 20.8088 7.07894 21.2827 6.77094 21.5587C6.46094 21.8357 5.98698 21.8087 5.71198 21.5007C5.09198 20.8087 4.75098 19.9128 4.75098 18.9788V17.9678C4.75098 15.7658 6.22194 13.8578 8.32794 13.3278C8.95094 13.1698 9.62795 13.2598 10.1819 13.5758C11.6119 14.3718 13.384 14.3748 14.826 13.5728C15.373 13.2608 16.05 13.1717 16.675 13.3287C18.778 13.8557 20.249 15.7638 20.249 17.9668Z" fill="#838383"/>
</svg>
