<svg width="374" height="379" viewBox="0 0 374 379" fill="none" xmlns="http://www.w3.org/2000/svg">
<path d="M59.4688 151.167C68.5429 148.142 88.3609 146.812 95.0396 165.686C101.718 184.56 113.067 186.617 117.907 185.286" stroke="#00FFEA" stroke-width="3" stroke-linecap="round"/>
<path d="M263.095 187.388C272.169 184.363 291.987 183.032 298.666 201.907C305.344 220.781 316.693 222.838 321.533 221.507" stroke="#00FFEA" stroke-width="3" stroke-linecap="round"/>
<g filter="url(#filter0_d_9_1269)">
<path d="M181.042 123.307C184.244 119.346 190.283 119.346 193.485 123.307L200.215 131.633C202.204 134.094 205.457 135.151 208.513 134.329L218.851 131.549C223.77 130.227 228.656 133.777 228.918 138.863L229.469 149.554C229.632 152.715 231.642 155.482 234.598 156.613L244.595 160.441C249.352 162.262 251.218 168.006 248.44 172.275L242.602 181.248C240.876 183.901 240.876 187.321 242.602 189.974L248.44 198.947C251.218 203.216 249.352 208.96 244.595 210.781L234.598 214.609C231.642 215.74 229.632 218.507 229.469 221.668L228.918 232.359C228.656 237.445 223.77 240.995 218.851 239.673L208.513 236.893C205.457 236.071 202.204 237.128 200.215 239.589L193.485 247.915C190.283 251.876 184.244 251.876 181.042 247.915L174.312 239.589C172.323 237.128 169.069 236.071 166.013 236.893L155.676 239.673C150.757 240.995 145.871 237.445 145.609 232.359L145.058 221.668C144.895 218.507 142.884 215.74 139.929 214.609L129.932 210.781C125.175 208.96 123.309 203.216 126.087 198.947L131.925 189.974C133.651 187.321 133.651 183.901 131.925 181.248L126.087 172.275C123.309 168.006 125.175 162.262 129.932 160.441L139.929 156.613C142.884 155.482 144.895 152.715 145.058 149.554L145.609 138.863C145.871 133.777 150.757 130.227 155.676 131.549L166.013 134.329C169.069 135.151 172.323 134.094 174.312 131.633L181.042 123.307Z" fill="url(#paint0_linear_9_1269)"/>
</g>
<path d="M204.718 173.611L180.718 197.611L169.809 186.702" stroke="white" stroke-width="5" stroke-linecap="round" stroke-linejoin="round"/>
<path d="M266.968 116.572C267.282 114.662 270.028 114.662 270.343 116.572L271.316 122.479L277.223 123.452C279.133 123.767 279.133 126.513 277.223 126.827L271.316 127.8L270.343 133.707C270.028 135.617 267.282 135.617 266.968 133.707L265.995 127.8L260.088 126.827C258.178 126.513 258.178 123.767 260.088 123.452L265.995 122.479L266.968 116.572Z" fill="white"/>
<path d="M106.803 228.232C107.102 226.418 109.711 226.418 110.009 228.232L110.934 233.844L116.546 234.768C118.36 235.067 118.36 237.675 116.546 237.974L110.934 238.899L110.009 244.51C109.711 246.325 107.102 246.325 106.803 244.51L105.879 238.899L100.267 237.974C98.4527 237.675 98.4527 235.067 100.267 234.768L105.879 233.844L106.803 228.232Z" fill="white"/>
<path d="M101.691 121.339C101.911 120.002 103.833 120.002 104.053 121.339L104.734 125.474L108.869 126.155C110.206 126.376 110.206 128.298 108.869 128.518L104.734 129.199L104.053 133.334C103.833 134.671 101.911 134.671 101.691 133.334L101.01 129.199L96.8747 128.518C95.5379 128.298 95.5379 126.376 96.8747 126.155L101.01 125.474L101.691 121.339Z" fill="white"/>
<path d="M276.582 247.874C276.803 246.537 278.725 246.537 278.945 247.874L279.626 252.009L283.761 252.69C285.098 252.91 285.098 254.832 283.761 255.052L279.626 255.733L278.945 259.868C278.725 261.205 276.803 261.205 276.582 259.868L275.901 255.733L271.766 255.052C270.429 254.832 270.429 252.91 271.766 252.69L275.901 252.009L276.582 247.874Z" fill="white"/>
<circle cx="271.09" cy="164.787" r="4" fill="#FFE609"/>
<circle cx="169.809" cy="84.7373" r="4" fill="#FFE609"/>
<circle cx="225.58" cy="292.21" r="4" fill="#FFE609"/>
<circle cx="148.404" cy="267.84" r="2.5" fill="#FFE609"/>
<defs>
<filter id="filter0_d_9_1269" x="0.789062" y="0.33667" width="372.948" height="378.549" filterUnits="userSpaceOnUse" color-interpolation-filters="sRGB">
<feFlood flood-opacity="0" result="BackgroundImageFix"/>
<feColorMatrix in="SourceAlpha" type="matrix" values="0 0 0 0 0 0 0 0 0 0 0 0 0 0 0 0 0 0 127 0" result="hardAlpha"/>
<feOffset dy="4"/>
<feGaussianBlur stdDeviation="62"/>
<feComposite in2="hardAlpha" operator="out"/>
<feColorMatrix type="matrix" values="0 0 0 0 0.219608 0 0 0 0 0.937255 0 0 0 0 0.490196 0 0 0 0.5 0"/>
<feBlend mode="normal" in2="BackgroundImageFix" result="effect1_dropShadow_9_1269"/>
<feBlend mode="normal" in="SourceGraphic" in2="effect1_dropShadow_9_1269" result="shape"/>
</filter>
<linearGradient id="paint0_linear_9_1269" x1="124.789" y1="185.611" x2="249.738" y2="185.611" gradientUnits="userSpaceOnUse">
<stop stop-color="#11998E"/>
<stop offset="1" stop-color="#38EF7D"/>
</linearGradient>
</defs>
</svg>
