<svg width="24" height="24" viewBox="0 0 24 24" fill="none" xmlns="http://www.w3.org/2000/svg">
<path d="M13.4996 14.7826C14.6753 14.0503 15.5806 12.955 16.0784 11.6625C16.5762 10.3699 16.6394 8.95037 16.2586 7.61864C15.8778 6.2869 15.0736 5.11543 13.9677 4.28144C12.8618 3.44746 11.5144 2.99634 10.1293 2.99634C8.74418 2.99634 7.39675 3.44746 6.29086 4.28144C5.18496 5.11543 4.38078 6.2869 3.99996 7.61864C3.61915 8.95037 3.68243 10.3699 4.18023 11.6625C4.67803 12.955 5.58326 14.0503 6.75898 14.7826C4.82304 15.4163 3.08117 16.6004 1.68054 18.2673C1.61492 18.3423 1.56491 18.4297 1.53345 18.5243C1.50199 18.6189 1.4897 18.7188 1.4973 18.8182C1.50491 18.9176 1.53225 19.0145 1.57774 19.1032C1.62323 19.1919 1.68594 19.2707 1.76222 19.3348C1.83849 19.399 1.9268 19.4474 2.02198 19.477C2.11716 19.5067 2.21729 19.5171 2.31653 19.5076C2.41576 19.4981 2.51211 19.4689 2.59994 19.4217C2.68777 19.3746 2.76531 19.3104 2.82804 19.2329C4.71054 16.9867 7.30367 15.7501 10.1246 15.7501C12.9455 15.7501 15.5387 16.9867 17.4249 19.2329C17.553 19.3853 17.7363 19.4806 17.9346 19.4979C18.133 19.5151 18.33 19.4528 18.4824 19.3248C18.6348 19.1967 18.7301 19.0134 18.7474 18.8151C18.7646 18.6167 18.7023 18.4197 18.5743 18.2673C17.1727 16.6004 15.4309 15.4163 13.4996 14.7826ZM5.2496 9.37509C5.2496 8.4109 5.53552 7.46837 6.07119 6.66668C6.60686 5.86499 7.36823 5.24015 8.25902 4.87117C9.14981 4.5022 10.13 4.40566 11.0757 4.59376C12.0213 4.78186 12.89 5.24616 13.5717 5.92794C14.2535 6.60972 14.7178 7.47836 14.9059 8.42402C15.094 9.36968 14.9975 10.3499 14.6285 11.2407C14.2595 12.1315 13.6347 12.8928 12.833 13.4285C12.0313 13.9642 11.0888 14.2501 10.1246 14.2501C8.83213 14.2486 7.59302 13.7345 6.6791 12.8206C5.76519 11.9067 5.25109 10.6676 5.2496 9.37509ZM22.898 13.4129L22.4612 13.1607C22.5124 12.8894 22.5124 12.6108 22.4612 12.3395L22.898 12.0873C23.0704 11.9878 23.1961 11.824 23.2476 11.6318C23.2991 11.4397 23.2722 11.2349 23.1727 11.0626C23.0733 10.8903 22.9094 10.7645 22.7173 10.713C22.5251 10.6615 22.3204 10.6884 22.148 10.7879L21.7102 11.041C21.5007 10.8613 21.2598 10.7217 20.9996 10.6295V10.1251C20.9996 9.92618 20.9206 9.73541 20.7799 9.59476C20.6393 9.45411 20.4485 9.37509 20.2496 9.37509C20.0507 9.37509 19.8599 9.45411 19.7193 9.59476C19.5786 9.73541 19.4996 9.92618 19.4996 10.1251V10.6295C19.2394 10.7217 18.9985 10.8613 18.789 11.041L18.3512 10.7879C18.2658 10.7387 18.1717 10.7067 18.074 10.6938C17.9763 10.681 17.8771 10.6875 17.7819 10.713C17.6868 10.7385 17.5976 10.7825 17.5194 10.8425C17.4413 10.9025 17.3757 10.9773 17.3265 11.0626C17.2772 11.1479 17.2453 11.2421 17.2324 11.3398C17.2196 11.4374 17.2261 11.5367 17.2516 11.6318C17.2771 11.727 17.3211 11.8162 17.3811 11.8943C17.4411 11.9725 17.5158 12.038 17.6012 12.0873L18.038 12.3395C17.9868 12.6108 17.9868 12.8894 18.038 13.1607L17.6012 13.4129C17.4289 13.5124 17.3031 13.6762 17.2516 13.8684C17.2001 14.0605 17.227 14.2653 17.3265 14.4376C17.4259 14.6099 17.5898 14.7356 17.7819 14.7872C17.9741 14.8387 18.1789 14.8117 18.3512 14.7123L18.789 14.4592C18.9985 14.6389 19.2394 14.7784 19.4996 14.8707V15.3751C19.4996 15.574 19.5786 15.7648 19.7193 15.9054C19.8599 16.0461 20.0507 16.1251 20.2496 16.1251C20.4485 16.1251 20.6393 16.0461 20.7799 15.9054C20.9206 15.7648 20.9996 15.574 20.9996 15.3751V14.8707C21.2598 14.7784 21.5007 14.6389 21.7102 14.4592L22.148 14.7123C22.2619 14.7784 22.3914 14.813 22.523 14.8126C22.6882 14.8127 22.8488 14.7582 22.9798 14.6577C23.1108 14.5572 23.205 14.4162 23.2478 14.2567C23.2905 14.0972 23.2794 13.928 23.2162 13.7754C23.1529 13.6228 23.0411 13.4954 22.898 13.4129ZM19.4996 12.7501C19.4996 12.6018 19.5436 12.4567 19.626 12.3334C19.7084 12.2101 19.8255 12.1139 19.9626 12.0572C20.0996 12.0004 20.2504 11.9856 20.3959 12.0145C20.5414 12.0434 20.675 12.1149 20.7799 12.2198C20.8848 12.3246 20.9563 12.4583 20.9852 12.6038C21.0141 12.7493 20.9993 12.9001 20.9425 13.0371C20.8857 13.1741 20.7896 13.2913 20.6663 13.3737C20.5429 13.4561 20.3979 13.5001 20.2496 13.5001C20.0507 13.5001 19.8599 13.4211 19.7193 13.2804C19.5786 13.1398 19.4996 12.949 19.4996 12.7501Z" fill="white"/>
</svg>
