<svg width="25" height="24" viewBox="0 0 25 24" fill="none" xmlns="http://www.w3.org/2000/svg">
<path d="M22.5 19.5C22.5 19.6989 22.421 19.8897 22.2803 20.0303C22.1397 20.171 21.9489 20.25 21.75 20.25H3.75C3.55109 20.25 3.36032 20.171 3.21967 20.0303C3.07902 19.8897 3 19.6989 3 19.5C3 19.3011 3.07902 19.1103 3.21967 18.9697C3.36032 18.829 3.55109 18.75 3.75 18.75H4.5V12.75C4.5 12.5511 4.57902 12.3603 4.71967 12.2197C4.86032 12.079 5.05109 12 5.25 12H7.5C7.69891 12 7.88968 12.079 8.03033 12.2197C8.17098 12.3603 8.25 12.5511 8.25 12.75V18.75H9.75V8.25C9.75 8.05109 9.82902 7.86032 9.96967 7.71967C10.1103 7.57902 10.3011 7.5 10.5 7.5H13.5C13.6989 7.5 13.8897 7.57902 14.0303 7.71967C14.171 7.86032 14.25 8.05109 14.25 8.25V18.75H15.75V3.75C15.75 3.55109 15.829 3.36032 15.9697 3.21967C16.1103 3.07902 16.3011 3 16.5 3H20.25C20.4489 3 20.6397 3.07902 20.7803 3.21967C20.921 3.36032 21 3.55109 21 3.75V18.75H21.75C21.9489 18.75 22.1397 18.829 22.2803 18.9697C22.421 19.1103 22.5 19.3011 22.5 19.5Z" fill="url(#paint0_linear_9_1044)"/>
<defs>
<linearGradient id="paint0_linear_9_1044" x1="3" y1="11.625" x2="22.5" y2="11.625" gradientUnits="userSpaceOnUse">
<stop stop-color="#11998E"/>
<stop offset="1" stop-color="#38EF7D"/>
</linearGradient>
</defs>
</svg>
