<svg width="24" height="24" viewBox="0 0 24 24" fill="none" xmlns="http://www.w3.org/2000/svg">
<path d="M21.2446 10.2614L13.0868 10.261C12.7266 10.261 12.4346 10.5529 12.4346 10.9132V13.5192C12.4346 13.8794 12.7266 14.1714 13.0868 14.1714H17.6807C17.1777 15.4769 16.2388 16.5702 15.0409 17.2649L16.9998 20.6559C20.142 18.8386 21.9998 15.65 21.9998 12.0805C21.9998 11.5723 21.9623 11.209 21.8874 10.7999C21.8304 10.489 21.5606 10.2614 21.2446 10.2614Z" fill="#167EE6"/>
<path d="M12.0001 18.0868C9.75186 18.0868 7.7892 16.8585 6.7351 15.0408L3.34424 16.9952C5.06982 19.9859 8.3024 21.9999 12.0001 21.9999C13.814 21.9999 15.5256 21.5115 17.0001 20.6603V20.6557L15.0412 17.2647C14.1452 17.7844 13.1083 18.0868 12.0001 18.0868Z" fill="#12B347"/>
<path d="M17 20.6606V20.6559L15.0411 17.2649C14.1451 17.7845 13.1083 18.087 12 18.087V22.0001C13.8139 22.0001 15.5256 21.5117 17 20.6606Z" fill="#0F993E"/>
<path d="M5.91305 12C5.91305 10.8918 6.21547 9.85507 6.73504 8.95909L3.34418 7.00464C2.48836 8.47444 2 10.1814 2 12C2 13.8186 2.48836 15.5255 3.34418 16.9953L6.73504 15.0409C6.21547 14.1449 5.91305 13.1082 5.91305 12Z" fill="#FFD500"/>
<path d="M12.0001 5.91305C13.4661 5.91305 14.8128 6.43398 15.8646 7.30051C16.1241 7.51426 16.5012 7.49883 16.7389 7.26113L18.5854 5.41465C18.8551 5.14496 18.8359 4.70352 18.5478 4.45359C16.7855 2.92473 14.4925 2 12.0001 2C8.3024 2 5.06982 4.01395 3.34424 7.00465L6.7351 8.9591C7.7892 7.14141 9.75186 5.91305 12.0001 5.91305Z" fill="#FF4B26"/>
<path d="M15.8645 7.30051C16.124 7.51426 16.5012 7.49883 16.7389 7.26113L18.5854 5.41465C18.855 5.14496 18.8358 4.70352 18.5477 4.45359C16.7854 2.92469 14.4925 2 12 2V5.91305C13.466 5.91305 14.8127 6.43398 15.8645 7.30051Z" fill="#D93F21"/>
</svg>
