<svg width="21" height="20" viewBox="0 0 21 20" fill="none" xmlns="http://www.w3.org/2000/svg">
<path d="M20.5 10C20.5 14.9914 16.843 19.1285 12.0625 19.8785V12.8906H14.3926L14.8359 10H12.0625V8.12422C12.0625 7.3332 12.45 6.5625 13.6922 6.5625H14.9531V4.10156C14.9531 4.10156 13.8086 3.90625 12.7145 3.90625C10.4305 3.90625 8.9375 5.29063 8.9375 7.79688V10H6.39844V12.8906H8.9375V19.8785C4.15703 19.1285 0.5 14.9914 0.5 10C0.5 4.47734 4.97734 0 10.5 0C16.0227 0 20.5 4.47734 20.5 10Z" fill="#1877F2"/>
<path d="M14.3926 12.8906L14.8359 10H12.0625V8.12418C12.0625 7.33336 12.4499 6.5625 13.6921 6.5625H14.9531V4.10156C14.9531 4.10156 13.8088 3.90625 12.7146 3.90625C10.4304 3.90625 8.9375 5.29063 8.9375 7.79688V10H6.39844V12.8906H8.9375V19.8785C9.44664 19.9584 9.96844 20 10.5 20C11.0316 20 11.5534 19.9584 12.0625 19.8785V12.8906H14.3926Z" fill="white"/>
</svg>
