<svg width="19" height="28" viewBox="0 0 19 28" fill="none" xmlns="http://www.w3.org/2000/svg">
<path d="M4.67365 13.3589C4.67365 16.3682 6.63871 18.4879 9.50664 18.4879C12.3613 18.4879 14.3263 16.3682 14.3263 13.3589V5.12897C14.3263 2.10654 12.3613 0 9.50664 0C6.63871 0 4.67365 2.10654 4.67365 5.12897V13.3589ZM6.67855 13.3589V5.12897C6.67855 3.19252 7.80713 1.94953 9.50664 1.94953C11.2061 1.94953 12.3215 3.19252 12.3215 5.12897V13.3589C12.3215 15.2953 11.2061 16.5383 9.50664 16.5383C7.80713 16.5383 6.67855 15.2953 6.67855 13.3589ZM0 13.8299C0 18.9589 3.43885 22.557 8.49755 22.9757V26.0243H3.57163C3.01398 26.0243 2.56254 26.4692 2.56254 27.0187C2.56254 27.5682 3.01398 28 3.57163 28H15.4284C15.986 28 16.4375 27.5682 16.4375 27.0187C16.4375 26.4692 15.986 26.0243 15.4284 26.0243H10.5024V22.9757C15.5744 22.557 19 18.9589 19 13.8299V11.1738C19 10.6243 18.5618 10.1925 18.0042 10.1925C17.4465 10.1925 16.9951 10.6243 16.9951 11.1738V13.7514C16.9951 18.2131 14.0475 21.1701 9.50664 21.1701C4.95248 21.1701 2.00489 18.2131 2.00489 13.7514V11.1738C2.00489 10.6243 1.56674 10.1925 0.995807 10.1925C0.438155 10.1925 0 10.6243 0 11.1738V13.8299Z" fill="#D9D9D9"/>
</svg>
