<svg width="19" height="12" viewBox="0 0 19 12" fill="none" xmlns="http://www.w3.org/2000/svg">
<path d="M10.7993 3C10.7993 2.44772 11.247 2 11.7993 2H12.7993C13.3516 2 13.7993 2.44772 13.7993 3V11C13.7993 11.5523 13.3516 12 12.7993 12H11.7993C11.247 12 10.7993 11.5523 10.7993 11V3Z" fill="white"/>
<path d="M15.7993 1C15.7993 0.447715 16.247 0 16.7993 0H17.7993C18.3516 0 18.7993 0.447715 18.7993 1V11C18.7993 11.5523 18.3516 12 17.7993 12H16.7993C16.247 12 15.7993 11.5523 15.7993 11V1Z" fill="white"/>
<path d="M5.79932 6.5C5.79932 5.94772 6.24703 5.5 6.79932 5.5H7.79932C8.3516 5.5 8.79932 5.94772 8.79932 6.5V11C8.79932 11.5523 8.3516 12 7.79932 12H6.79932C6.24703 12 5.79932 11.5523 5.79932 11V6.5Z" fill="white"/>
<path d="M0.799316 9C0.799316 8.44772 1.24703 8 1.79932 8H2.79932C3.3516 8 3.79932 8.44772 3.79932 9V11C3.79932 11.5523 3.3516 12 2.79932 12H1.79932C1.24703 12 0.799316 11.5523 0.799316 11V9Z" fill="white"/>
</svg>
