<svg width="20" height="20" viewBox="0 0 20 20" fill="none" xmlns="http://www.w3.org/2000/svg">
<g clip-path="url(#clip0_9_1445)">
<path d="M17.0459 13.0387L16.1243 11.5004C15.7943 10.9504 15.6209 10.3211 15.6209 9.6803V7.49117C15.6209 4.3945 13.0993 1.87451 10.0001 1.87451C6.90095 1.87451 4.37927 4.39367 4.37927 7.49117V9.6803C4.37927 10.3211 4.2051 10.9504 3.87594 11.5004L2.95428 13.0387C2.63345 13.5728 2.62595 14.2161 2.93261 14.7578C3.24011 15.3011 3.79594 15.6253 4.4201 15.6253H7.73678C7.73011 15.6953 7.70928 15.7628 7.70928 15.8337C7.70928 17.0978 8.73678 18.1253 10.0009 18.1253C11.2651 18.1253 12.2926 17.0978 12.2926 15.8337C12.2926 15.7628 12.2718 15.6953 12.2651 15.6253H15.5818C16.2059 15.6253 16.7626 15.3011 17.0693 14.7586C17.3751 14.2161 17.3668 13.5728 17.0459 13.0387ZM11.0409 15.8337C11.0409 16.4078 10.5734 16.8753 9.99928 16.8753C9.42511 16.8753 8.95761 16.4078 8.95761 15.8337C8.95761 15.7628 8.97095 15.6937 8.98511 15.6253H11.0134C11.0276 15.6937 11.0409 15.7628 11.0409 15.8337ZM15.9801 14.142C15.9401 14.212 15.8226 14.3745 15.5801 14.3745H4.41844C4.17677 14.3745 4.05844 14.212 4.01844 14.142C3.97928 14.072 3.90011 13.8878 4.02428 13.6812L4.94595 12.1429C5.39261 11.3987 5.62761 10.547 5.62761 9.6803V7.49117C5.62761 5.08367 7.58844 3.12451 9.99844 3.12451C12.4084 3.12451 14.3693 5.08367 14.3693 7.49117V9.6803C14.3693 10.547 14.6051 11.3987 15.0509 12.1429L15.9726 13.6812C16.0976 13.8878 16.0193 14.072 15.9801 14.142Z" fill="white"/>
</g>
<defs>
<clipPath id="clip0_9_1445">
<rect width="20" height="20" fill="white"/>
</clipPath>
</defs>
</svg>
