<svg width="40" height="40" viewBox="0 0 40 40" fill="none" xmlns="http://www.w3.org/2000/svg">
<circle cx="18" cy="18" r="18" fill="white" fill-opacity="0.2"/>
<g clip-path="url(#clip0_9_1017)">
<g clip-path="url(#clip1_9_1017)">
<path d="M26.4545 21.6465L25.3486 19.8005C24.9526 19.1405 24.7445 18.3855 24.7445 17.6165V14.9895C24.7445 11.2735 21.7186 8.24951 17.9996 8.24951C14.2806 8.24951 11.2545 11.2725 11.2545 14.9895V17.6165C11.2545 18.3855 11.0455 19.1405 10.6505 19.8005L9.54455 21.6465C9.15955 22.2875 9.15055 23.0595 9.51855 23.7095C9.88755 24.3615 10.5545 24.7505 11.3035 24.7505H15.2835C15.2755 24.8345 15.2505 24.9155 15.2505 25.0005C15.2505 26.5175 16.4835 27.7505 18.0005 27.7505C19.5175 27.7505 20.7505 26.5175 20.7505 25.0005C20.7505 24.9155 20.7255 24.8345 20.7175 24.7505H24.6976C25.4466 24.7505 26.1145 24.3614 26.4825 23.7104C26.8495 23.0594 26.8395 22.2875 26.4545 21.6465ZM19.2485 25.0005C19.2485 25.6895 18.6875 26.2505 17.9985 26.2505C17.3095 26.2505 16.7485 25.6895 16.7485 25.0005C16.7485 24.9155 16.7646 24.8325 16.7816 24.7505H19.2155C19.2325 24.8325 19.2485 24.9155 19.2485 25.0005ZM25.1755 22.9705C25.1275 23.0545 24.9866 23.2495 24.6956 23.2495H11.3015C11.0115 23.2495 10.8695 23.0545 10.8215 22.9705C10.7745 22.8865 10.6795 22.6655 10.8285 22.4175L11.9346 20.5715C12.4706 19.6785 12.7525 18.6565 12.7525 17.6165V14.9895C12.7525 12.1005 15.1055 9.74951 17.9975 9.74951C20.8895 9.74951 23.2425 12.1005 23.2425 14.9895V17.6165C23.2425 18.6565 23.5255 19.6785 24.0605 20.5715L25.1665 22.4175C25.3165 22.6655 25.2225 22.8865 25.1755 22.9705Z" fill="white"/>
<circle cx="22" cy="11" r="3" fill="#FFC4C4"/>
<circle cx="22" cy="11" r="2" fill="#DC1010"/>
</g>
</g>
<defs>
<clipPath id="clip0_9_1017">
<rect width="24" height="24" fill="white" transform="translate(6 6)"/>
</clipPath>
<clipPath id="clip1_9_1017">
<rect width="24" height="24" fill="white" transform="translate(6 6)"/>
</clipPath>
</defs>
</svg>
