<svg width="25" height="24" viewBox="0 0 25 24" fill="none" xmlns="http://www.w3.org/2000/svg">
<path fill-rule="evenodd" clip-rule="evenodd" d="M4.8699 17.2786C4.8699 18.9226 6.2079 20.2606 7.8529 20.2606H9.0889C9.5029 20.2606 9.8389 20.5966 9.8389 21.0106C9.8389 21.4246 9.5029 21.7606 9.0889 21.7606H7.8529C5.3809 21.7606 3.3699 19.7496 3.3699 17.2786L3.369 13.954L2.25 13.9549C1.836 13.9549 1.5 13.6189 1.5 13.2049C1.5 12.7909 1.836 12.4549 2.25 12.4549L4.10559 12.4537C4.11035 12.4536 4.11512 12.4536 4.1199 12.4536L4.134 12.454L21.3648 12.4538C21.3699 12.4537 21.3749 12.4536 21.38 12.4536L21.394 12.454L23.25 12.4549C23.664 12.4549 24 12.7909 24 13.2049C24 13.6189 23.664 13.9549 23.25 13.9549L22.13 13.954V17.2786C22.13 19.7496 20.119 21.7606 17.647 21.7606H16.442C16.028 21.7606 15.692 21.4246 15.692 21.0106C15.692 20.5966 16.028 20.2606 16.442 20.2606H17.647C19.292 20.2606 20.63 18.9226 20.63 17.2786V13.954H4.869L4.8699 17.2786ZM17.6469 3C20.1189 3 22.1299 5.011 22.1299 7.481V8.995C22.1299 9.409 21.7939 9.745 21.3799 9.745C20.9659 9.745 20.6299 9.409 20.6299 8.995V7.481C20.6299 5.838 19.2919 4.5 17.6469 4.5H16.4419C16.0279 4.5 15.6919 4.164 15.6919 3.75C15.6919 3.336 16.0279 3 16.4419 3H17.6469ZM9.0891 3C9.5031 3 9.8391 3.336 9.8391 3.75C9.8391 4.164 9.5031 4.5 9.0891 4.5H7.8531C6.2081 4.5 4.8701 5.838 4.8701 7.481V8.995C4.8701 9.409 4.5341 9.745 4.1201 9.745C3.7061 9.745 3.3701 9.409 3.3701 8.995V7.481C3.3701 5.011 5.3811 3 7.8531 3H9.0891Z" fill="white"/>
</svg>
