<svg width="25" height="24" viewBox="0 0 25 24" fill="none" xmlns="http://www.w3.org/2000/svg">
<path fill-rule="evenodd" clip-rule="evenodd" d="M11.3049 14.8178L14.9619 20.7508C15.1219 21.0108 15.3719 21.0078 15.4729 20.9938C15.5739 20.9798 15.8169 20.9178 15.9049 20.6228L20.4779 5.17777C20.5579 4.90477 20.4109 4.71877 20.3449 4.65277C20.2809 4.58677 20.0979 4.44577 19.8329 4.52077L4.37694 9.04677C4.08394 9.13277 4.01995 9.37877 4.00594 9.47977C3.99194 9.58277 3.98794 9.83777 4.24694 10.0008L10.2479 13.7538L15.5499 8.39577C15.8409 8.10177 16.3159 8.09877 16.6109 8.38977C16.9059 8.68077 16.9079 9.15677 16.6169 9.45077L11.3049 14.8178ZM15.3949 22.4998C14.6989 22.4998 14.0609 22.1458 13.6849 21.5378L9.80794 15.2468L3.45194 11.2718C2.76694 10.8428 2.40894 10.0788 2.51994 9.27577C2.62994 8.47277 3.18094 7.83477 3.95494 7.60777L19.4109 3.08177C20.1219 2.87377 20.8839 3.07077 21.4079 3.59277C21.9319 4.11977 22.1269 4.88977 21.9149 5.60377L17.3419 21.0478C17.1129 21.8248 16.4729 22.3738 15.6719 22.4808C15.5779 22.4928 15.4869 22.4998 15.3949 22.4998Z" fill="white"/>
</svg>
