<svg width="7" height="154" viewBox="0 0 7 154" fill="none" xmlns="http://www.w3.org/2000/svg">
<path d="M0.833333 3.46484C0.833333 4.9376 2.02724 6.13151 3.5 6.13151C4.97276 6.13151 6.16667 4.9376 6.16667 3.46484C6.16667 1.99208 4.97276 0.798177 3.5 0.798177C2.02724 0.798177 0.833333 1.99208 0.833333 3.46484ZM3 4.45169C3 4.72783 3.22386 4.95169 3.5 4.95169C3.77614 4.95169 4 4.72783 4 4.45169H3ZM4 6.42537C4 6.14923 3.77614 5.92537 3.5 5.92537C3.22386 5.92537 3 6.14923 3 6.42537H4ZM3 8.39905C3 8.6752 3.22386 8.89905 3.5 8.89905C3.77614 8.89905 4 8.6752 4 8.39905H3ZM4 10.3727C4 10.0966 3.77614 9.87274 3.5 9.87274C3.22386 9.87274 3 10.0966 3 10.3727H4ZM3 12.3464C3 12.6226 3.22386 12.8464 3.5 12.8464C3.77614 12.8464 4 12.6226 4 12.3464H3ZM4 14.3201C4 14.044 3.77614 13.8201 3.5 13.8201C3.22386 13.8201 3 14.044 3 14.3201H4ZM3 16.2938C3 16.5699 3.22386 16.7938 3.5 16.7938C3.77614 16.7938 4 16.5699 4 16.2938H3ZM4 18.2675C4 17.9913 3.77614 17.7675 3.5 17.7675C3.22386 17.7675 3 17.9913 3 18.2675H4ZM3 20.2412C3 20.5173 3.22386 20.7412 3.5 20.7412C3.77614 20.7412 4 20.5173 4 20.2412H3ZM4 22.2148C4 21.9387 3.77614 21.7148 3.5 21.7148C3.22386 21.7148 3 21.9387 3 22.2148H4ZM3 24.1885C3 24.4647 3.22386 24.6885 3.5 24.6885C3.77614 24.6885 4 24.4647 4 24.1885H3ZM4 26.1622C4 25.8861 3.77614 25.6622 3.5 25.6622C3.22386 25.6622 3 25.8861 3 26.1622H4ZM3 28.1359C3 28.412 3.22386 28.6359 3.5 28.6359C3.77614 28.6359 4 28.412 4 28.1359H3ZM4 30.1096C4 29.8334 3.77614 29.6096 3.5 29.6096C3.22386 29.6096 3 29.8334 3 30.1096H4ZM3 32.0833C3 32.3594 3.22386 32.5833 3.5 32.5833C3.77614 32.5833 4 32.3594 4 32.0833H3ZM4 34.0569C4 33.7808 3.77614 33.5569 3.5 33.5569C3.22386 33.5569 3 33.7808 3 34.0569H4ZM3 36.0306C3 36.3068 3.22386 36.5306 3.5 36.5306C3.77614 36.5306 4 36.3068 4 36.0306H3ZM4 38.0043C4 37.7282 3.77614 37.5043 3.5 37.5043C3.22386 37.5043 3 37.7282 3 38.0043H4ZM3 39.978C3 40.2541 3.22386 40.478 3.5 40.478C3.77614 40.478 4 40.2541 4 39.978H3ZM4 41.9517C4 41.6755 3.77614 41.4517 3.5 41.4517C3.22386 41.4517 3 41.6755 3 41.9517H4ZM3 43.9254C3 44.2015 3.22386 44.4254 3.5 44.4254C3.77614 44.4254 4 44.2015 4 43.9254H3ZM4 45.899C4 45.6229 3.77614 45.399 3.5 45.399C3.22386 45.399 3 45.6229 3 45.899H4ZM3 47.8727C3 48.1489 3.22386 48.3727 3.5 48.3727C3.77614 48.3727 4 48.1489 4 47.8727H3ZM4 49.8464C4 49.5703 3.77614 49.3464 3.5 49.3464C3.22386 49.3464 3 49.5703 3 49.8464H4ZM3 51.8201C3 52.0962 3.22386 52.3201 3.5 52.3201C3.77614 52.3201 4 52.0962 4 51.8201H3ZM4 53.7938C4 53.5176 3.77614 53.2938 3.5 53.2938C3.22386 53.2938 3 53.5176 3 53.7938H4ZM3 55.7675C3 56.0436 3.22386 56.2675 3.5 56.2675C3.77614 56.2675 4 56.0436 4 55.7675H3ZM4 57.7411C4 57.465 3.77614 57.2411 3.5 57.2411C3.22386 57.2411 3 57.465 3 57.7411H4ZM3 59.7148C3 59.991 3.22386 60.2148 3.5 60.2148C3.77614 60.2148 4 59.991 4 59.7148H3ZM4 61.6885C4 61.4124 3.77614 61.1885 3.5 61.1885C3.22386 61.1885 3 61.4124 3 61.6885H4ZM3 63.6622C3 63.9383 3.22386 64.1622 3.5 64.1622C3.77614 64.1622 4 63.9383 4 63.6622H3ZM4 65.6359C4 65.3597 3.77614 65.1359 3.5 65.1359C3.22386 65.1359 3 65.3597 3 65.6359H4ZM3 67.6096C3 67.8857 3.22386 68.1096 3.5 68.1096C3.77614 68.1096 4 67.8857 4 67.6096H3ZM4 69.5832C4 69.3071 3.77614 69.0832 3.5 69.0832C3.22386 69.0832 3 69.3071 3 69.5832H4ZM3 71.5569C3 71.8331 3.22386 72.0569 3.5 72.0569C3.77614 72.0569 4 71.8331 4 71.5569H3ZM4 73.5306C4 73.2545 3.77614 73.0306 3.5 73.0306C3.22386 73.0306 3 73.2545 3 73.5306H4ZM3 75.5043C3 75.7804 3.22386 76.0043 3.5 76.0043C3.77614 76.0043 4 75.7804 4 75.5043H3ZM4 77.478C4 77.2018 3.77614 76.978 3.5 76.978C3.22386 76.978 3 77.2018 3 77.478H4ZM3 79.4517C3 79.7278 3.22386 79.9517 3.5 79.9517C3.77614 79.9517 4 79.7278 4 79.4517H3ZM4 81.4254C4 81.1492 3.77614 80.9254 3.5 80.9254C3.22386 80.9254 3 81.1492 3 81.4254H4ZM3 83.399C3 83.6752 3.22386 83.899 3.5 83.899C3.77614 83.899 4 83.6752 4 83.399H3ZM4 85.3727C4 85.0966 3.77614 84.8727 3.5 84.8727C3.22386 84.8727 3 85.0966 3 85.3727H4ZM3 87.3464C3 87.6226 3.22386 87.8464 3.5 87.8464C3.77614 87.8464 4 87.6226 4 87.3464H3ZM4 89.3201C4 89.044 3.77614 88.8201 3.5 88.8201C3.22386 88.8201 3 89.044 3 89.3201H4ZM3 91.2938C3 91.5699 3.22386 91.7938 3.5 91.7938C3.77614 91.7938 4 91.5699 4 91.2938H3ZM4 93.2675C4 92.9913 3.77614 92.7675 3.5 92.7675C3.22386 92.7675 3 92.9913 3 93.2675H4ZM3 95.2412C3 95.5173 3.22386 95.7412 3.5 95.7412C3.77614 95.7412 4 95.5173 4 95.2412H3ZM4 97.2148C4 96.9387 3.77614 96.7148 3.5 96.7148C3.22386 96.7148 3 96.9387 3 97.2148H4ZM3 99.1885C3 99.4647 3.22386 99.6885 3.5 99.6885C3.77614 99.6885 4 99.4647 4 99.1885H3ZM4 101.162C4 100.886 3.77614 100.662 3.5 100.662C3.22386 100.662 3 100.886 3 101.162H4ZM3 103.136C3 103.412 3.22386 103.636 3.5 103.636C3.77614 103.636 4 103.412 4 103.136H3ZM4 105.11C4 104.833 3.77614 104.61 3.5 104.61C3.22386 104.61 3 104.833 3 105.11H4ZM3 107.083C3 107.359 3.22386 107.583 3.5 107.583C3.77614 107.583 4 107.359 4 107.083H3ZM4 109.057C4 108.781 3.77614 108.557 3.5 108.557C3.22386 108.557 3 108.781 3 109.057H4ZM3 111.031C3 111.307 3.22386 111.531 3.5 111.531C3.77614 111.531 4 111.307 4 111.031H3ZM4 113.004C4 112.728 3.77614 112.504 3.5 112.504C3.22386 112.504 3 112.728 3 113.004H4ZM3 114.978C3 115.254 3.22386 115.478 3.5 115.478C3.77614 115.478 4 115.254 4 114.978H3ZM4 116.952C4 116.676 3.77614 116.452 3.5 116.452C3.22386 116.452 3 116.676 3 116.952H4ZM3 118.925C3 119.202 3.22386 119.425 3.5 119.425C3.77614 119.425 4 119.202 4 118.925H3ZM4 120.899C4 120.623 3.77614 120.399 3.5 120.399C3.22386 120.399 3 120.623 3 120.899H4ZM3 122.873C3 123.149 3.22386 123.373 3.5 123.373C3.77614 123.373 4 123.149 4 122.873H3ZM4 124.846C4 124.57 3.77614 124.346 3.5 124.346C3.22386 124.346 3 124.57 3 124.846H4ZM3 126.82C3 127.096 3.22386 127.32 3.5 127.32C3.77614 127.32 4 127.096 4 126.82H3ZM4 128.794C4 128.518 3.77614 128.294 3.5 128.294C3.22386 128.294 3 128.518 3 128.794H4ZM3 130.768C3 131.044 3.22386 131.268 3.5 131.268C3.77614 131.268 4 131.044 4 130.768H3ZM4 132.741C4 132.465 3.77614 132.241 3.5 132.241C3.22386 132.241 3 132.465 3 132.741H4ZM3 134.715C3 134.991 3.22386 135.215 3.5 135.215C3.77614 135.215 4 134.991 4 134.715H3ZM4 136.689C4 136.412 3.77614 136.189 3.5 136.189C3.22386 136.189 3 136.412 3 136.689H4ZM3 138.662C3 138.938 3.22386 139.162 3.5 139.162C3.77614 139.162 4 138.938 4 138.662H3ZM4 140.636C4 140.36 3.77614 140.136 3.5 140.136C3.22386 140.136 3 140.36 3 140.636H4ZM3 142.61C3 142.886 3.22386 143.11 3.5 143.11C3.77614 143.11 4 142.886 4 142.61H3ZM4 144.583C4 144.307 3.77614 144.083 3.5 144.083C3.22386 144.083 3 144.307 3 144.583H4ZM3 146.557C3 146.833 3.22386 147.057 3.5 147.057C3.77614 147.057 4 146.833 4 146.557H3ZM4 148.531C4 148.254 3.77614 148.031 3.5 148.031C3.22386 148.031 3 148.254 3 148.531H4ZM3 150.504C3 150.78 3.22386 151.004 3.5 151.004C3.77614 151.004 4 150.78 4 150.504H3ZM4 152.478C4 152.202 3.77614 151.978 3.5 151.978C3.22386 151.978 3 152.202 3 152.478H4ZM3 3.46484V4.45169H4V3.46484H3ZM3 6.42537V8.39905H4V6.42537H3ZM3 10.3727V12.3464H4V10.3727H3ZM3 14.3201V16.2938H4V14.3201H3ZM3 18.2675V20.2412H4V18.2675H3ZM3 22.2148V24.1885H4V22.2148H3ZM3 26.1622V28.1359H4V26.1622H3ZM3 30.1096V32.0833H4V30.1096H3ZM3 34.0569V36.0306H4V34.0569H3ZM3 38.0043V39.978H4V38.0043H3ZM3 41.9517V43.9254H4V41.9517H3ZM3 45.899V47.8727H4V45.899H3ZM3 49.8464V51.8201H4V49.8464H3ZM3 53.7938V55.7675H4V53.7938H3ZM3 57.7411V59.7148H4V57.7411H3ZM3 61.6885V63.6622H4V61.6885H3ZM3 65.6359V67.6096H4V65.6359H3ZM3 69.5832V71.5569H4V69.5832H3ZM3 73.5306V75.5043H4V73.5306H3ZM3 77.478V79.4517H4V77.478H3ZM3 81.4254V83.399H4V81.4254H3ZM3 85.3727V87.3464H4V85.3727H3ZM3 89.3201V91.2938H4V89.3201H3ZM3 93.2675V95.2412H4V93.2675H3ZM3 97.2148V99.1885H4V97.2148H3ZM3 101.162V103.136H4V101.162H3ZM3 105.11V107.083H4V105.11H3ZM3 109.057V111.031H4V109.057H3ZM3 113.004V114.978H4V113.004H3ZM3 116.952V118.925H4V116.952H3ZM3 120.899V122.873H4V120.899H3ZM3 124.846V126.82H4V124.846H3ZM3 128.794V130.768H4V128.794H3ZM3 132.741V134.715H4V132.741H3ZM3 136.689V138.662H4V136.689H3ZM3 140.636V142.61H4V140.636H3ZM3 144.583V146.557H4V144.583H3ZM3 148.531V150.504H4V148.531H3ZM3 152.478V153.465H4V152.478H3Z" fill="white"/>
</svg>
