<svg width="12" height="20" viewBox="0 0 12 20" fill="none" xmlns="http://www.w3.org/2000/svg">
<path d="M11.1193 18.1309C11.2006 18.2122 11.265 18.3087 11.309 18.415C11.353 18.5212 11.3757 18.635 11.3757 18.75C11.3757 18.865 11.353 18.9788 11.309 19.085C11.265 19.1913 11.2006 19.2878 11.1193 19.3691C11.038 19.4504 10.9415 19.5148 10.8352 19.5588C10.729 19.6028 10.6152 19.6255 10.5002 19.6255C10.3852 19.6255 10.2714 19.6028 10.1652 19.5588C10.0589 19.5148 9.96243 19.4504 9.88114 19.3691L1.13114 10.6191C1.04978 10.5378 0.985244 10.4413 0.941211 10.3351C0.897177 10.2288 0.874512 10.115 0.874512 10C0.874512 9.88501 0.897177 9.77115 0.941211 9.66493C0.985244 9.5587 1.04978 9.4622 1.13114 9.38094L9.88114 0.630936C10.0453 0.46675 10.268 0.374512 10.5002 0.374512C10.7324 0.374512 10.9551 0.46675 11.1193 0.630936C11.2834 0.795121 11.3757 1.0178 11.3757 1.25C11.3757 1.48219 11.2834 1.70488 11.1193 1.86906L2.98723 10L11.1193 18.1309Z" fill="white"/>
</svg>
