<svg width="59" height="58" viewBox="0 0 59 58" fill="none" xmlns="http://www.w3.org/2000/svg">
<path fill-rule="evenodd" clip-rule="evenodd" d="M37.9557 16.9437C35.5712 15.3504 32.7677 14.5 29.8999 14.5V0C35.6355 0 41.2424 1.70082 46.0114 4.88739C50.7805 8.07394 54.4974 12.6031 56.6924 17.9021C58.8873 23.2012 59.4617 29.0322 58.3427 34.6576C57.2237 40.283 54.4618 45.4504 50.406 49.5061C46.3503 53.5619 41.1829 56.3238 35.5575 57.4428C29.9321 58.5618 24.1011 57.9874 18.802 55.7925C13.503 53.5975 8.97384 49.8806 5.78729 45.1115C2.60072 40.3425 0.899902 34.7356 0.899902 29H15.3999C15.3999 31.8678 16.2503 34.6713 17.8436 37.0558C19.4369 39.4403 21.7015 41.2988 24.3511 42.3963C27.0005 43.4938 29.916 43.7809 32.7287 43.2213C35.5414 42.6619 38.125 41.2809 40.153 39.2531C42.1808 37.2251 43.5618 34.6415 44.1212 31.8288C44.6808 29.0161 44.3937 26.1006 43.2962 23.4511C42.1987 20.8016 40.3402 18.537 37.9557 16.9437Z" fill="url(#paint0_linear_9_671)"/>
<defs>
<linearGradient id="paint0_linear_9_671" x1="0.899902" y1="29" x2="58.8999" y2="29" gradientUnits="userSpaceOnUse">
<stop stop-color="#11998E"/>
<stop offset="1" stop-color="#38EF7D"/>
</linearGradient>
</defs>
</svg>
