<svg width="18" height="12" viewBox="0 0 18 12" fill="none" xmlns="http://www.w3.org/2000/svg">
<path fill-rule="evenodd" clip-rule="evenodd" d="M9.29978 2.58753C11.7663 2.58764 14.1386 3.55505 15.9262 5.28982C16.0608 5.42375 16.276 5.42206 16.4085 5.28603L17.6953 3.96045C17.7624 3.89146 17.7999 3.798 17.7993 3.70076C17.7988 3.60353 17.7603 3.51052 17.6923 3.44234C13.0004 -1.14745 5.59839 -1.14745 0.906479 3.44234C0.838514 3.51047 0.799951 3.60345 0.799324 3.70069C0.798697 3.79792 0.836059 3.89141 0.90314 3.96045L2.19028 5.28603C2.32277 5.42226 2.5381 5.42396 2.67263 5.28982C4.46047 3.55494 6.83298 2.58752 9.29978 2.58753ZM9.33523 6.58937C10.6904 6.58929 11.9973 7.10346 13.0018 8.03199C13.1377 8.16376 13.3518 8.16091 13.4842 8.02555L14.7695 6.69997C14.8372 6.63044 14.8747 6.53611 14.8738 6.4381C14.8728 6.34008 14.8333 6.24656 14.7643 6.17844C11.7052 3.27385 6.96784 3.27385 3.90876 6.17844C3.83966 6.24656 3.80024 6.34013 3.79933 6.43817C3.79843 6.53622 3.83611 6.63054 3.90394 6.69997L5.18885 8.02555C5.3213 8.16091 5.53533 8.16376 5.67121 8.03199C6.6751 7.10408 7.98091 6.58995 9.33523 6.58937ZM11.9489 9.17672C11.9508 9.27501 11.913 9.36977 11.8442 9.43863L9.62097 11.7289C9.55579 11.7962 9.46694 11.834 9.37422 11.834C9.28151 11.834 9.19266 11.7962 9.12748 11.7289L6.90384 9.43863C6.83515 9.36972 6.79736 9.27492 6.79939 9.17663C6.80143 9.07834 6.84311 8.98527 6.9146 8.91938C8.33446 7.69354 10.414 7.69354 11.8339 8.91938C11.9053 8.98532 11.9469 9.07843 11.9489 9.17672Z" fill="black"/>
</svg>
