<svg width="16" height="16" viewBox="0 0 16 16" fill="none" xmlns="http://www.w3.org/2000/svg">
<path d="M9.8 9.2C9.68133 9.2 9.56533 9.23519 9.46666 9.30112C9.36799 9.36705 9.29109 9.46075 9.24567 9.57039C9.20026 9.68003 9.18838 9.80067 9.21153 9.91705C9.23468 10.0334 9.29182 10.1404 9.37574 10.2243C9.45965 10.3082 9.56656 10.3653 9.68295 10.3885C9.79933 10.4116 9.91997 10.3997 10.0296 10.3543C10.1392 10.3089 10.233 10.232 10.2989 10.1333C10.3648 10.0347 10.4 9.91867 10.4 9.8C10.4 9.64087 10.3368 9.48826 10.2243 9.37574C10.1117 9.26321 9.95913 9.2 9.8 9.2ZM6.2 5.6C6.08133 5.6 5.96533 5.63519 5.86666 5.70112C5.76799 5.76705 5.69108 5.86075 5.64567 5.97039C5.60026 6.08003 5.58838 6.20067 5.61153 6.31705C5.63468 6.43344 5.69182 6.54035 5.77574 6.62426C5.85965 6.70818 5.96656 6.76532 6.08295 6.78847C6.19933 6.81162 6.31997 6.79974 6.42961 6.75433C6.53925 6.70892 6.63295 6.63201 6.69888 6.53334C6.76481 6.43467 6.8 6.31867 6.8 6.2C6.8 6.04087 6.73679 5.88826 6.62426 5.77574C6.51174 5.66321 6.35913 5.6 6.2 5.6ZM6.2 9.2C6.08133 9.2 5.96533 9.23519 5.86666 9.30112C5.76799 9.36705 5.69108 9.46075 5.64567 9.57039C5.60026 9.68003 5.58838 9.80067 5.61153 9.91705C5.63468 10.0334 5.69182 10.1404 5.77574 10.2243C5.85965 10.3082 5.96656 10.3653 6.08295 10.3885C6.19933 10.4116 6.31997 10.3997 6.42961 10.3543C6.53925 10.3089 6.63295 10.232 6.69888 10.1333C6.76481 10.0347 6.8 9.91867 6.8 9.8C6.8 9.64087 6.73679 9.48826 6.62426 9.37574C6.51174 9.26321 6.35913 9.2 6.2 9.2ZM9.8 5.6C9.68133 5.6 9.56533 5.63519 9.46666 5.70112C9.36799 5.76705 9.29109 5.86075 9.24567 5.97039C9.20026 6.08003 9.18838 6.20067 9.21153 6.31705C9.23468 6.43344 9.29182 6.54035 9.37574 6.62426C9.45965 6.70818 9.56656 6.76532 9.68295 6.78847C9.79933 6.81162 9.91997 6.79974 10.0296 6.75433C10.1392 6.70892 10.233 6.63201 10.2989 6.53334C10.3648 6.43467 10.4 6.31867 10.4 6.2C10.4 6.04087 10.3368 5.88826 10.2243 5.77574C10.1117 5.66321 9.95913 5.6 9.8 5.6ZM11 2H5C4.20435 2 3.44129 2.31607 2.87868 2.87868C2.31607 3.44129 2 4.20435 2 5V11C2 11.7956 2.31607 12.5587 2.87868 13.1213C3.44129 13.6839 4.20435 14 5 14H11C11.7956 14 12.5587 13.6839 13.1213 13.1213C13.6839 12.5587 14 11.7956 14 11V5C14 4.20435 13.6839 3.44129 13.1213 2.87868C12.5587 2.31607 11.7956 2 11 2ZM12.8 11C12.8 11.4774 12.6104 11.9352 12.2728 12.2728C11.9352 12.6104 11.4774 12.8 11 12.8H5C4.52261 12.8 4.06477 12.6104 3.72721 12.2728C3.38964 11.9352 3.2 11.4774 3.2 11V5C3.2 4.52261 3.38964 4.06477 3.72721 3.72721C4.06477 3.38964 4.52261 3.2 5 3.2H11C11.4774 3.2 11.9352 3.38964 12.2728 3.72721C12.6104 4.06477 12.8 4.52261 12.8 5V11Z" fill="#09101D"/>
</svg>
